# xmcd
#
# Track frame offsets:
#	150
#	24220
#	41896
#	65464
#	80947
#	104203
#	137087
#	156936
#	176230
#	194807
#	215296
#	241273
#
# Disc length: 3519 seconds
#
# Revision: 0
# Processed by: cddbd v1.5.1PL2 Copyright (c) Steve Scherf et al.
# Submitted via: dBpowerAMP V4.0
#
DISCID=b70dbd0c
DTITLE=Dr. Mablues - get your backup
DYEAR=2005
DGENRE=Blues-Rock
TTITLE0=down on my knees
TTITLE1=hold on to me
TTITLE2=3 - 2 - 1 - ?
TTITLE3=gaz' song
TTITLE4=glad man's boogie
TTITLE5=dr. mablues - blues
TTITLE6=I've got everything
TTITLE7=she's fine
TTITLE8=strange ways
TTITLE9=come back
TTITLE10=blues on my mind
TTITLE11=georgeous lady
EXTD=
EXTT0=
EXTT1=
EXTT2=
EXTT3=
EXTT4=
EXTT5=
EXTT6=
EXTT7=
EXTT8=
EXTT9=
EXTT10=
EXTT11=
PLAYORDER=
